<svg width="152.738037" height="132.155029" viewBox="0 0 152.738 132.155" fill="none" xmlns="http://www.w3.org/2000/svg" xmlns:xlink="http://www.w3.org/1999/xlink">
	<desc>
			Created with Pixso.
	</desc>
	<defs/>
	<path id="Vector" d="M130.354 130.299C130.782 130.72 130.793 131.413 130.37 131.84C129.948 132.268 129.262 132.257 128.845 131.824L126.193 129.065C125.809 128.665 125.818 128.026 126.208 127.632C126.598 127.237 127.23 127.228 127.626 127.616L130.354 130.299ZM7.2113 107.369C6.6626 107.608 6.02539 107.353 5.79651 106.795C5.56763 106.237 5.83899 105.6 6.39417 105.376L9.93018 103.953C10.4423 103.746 11.0222 104 11.2334 104.515C11.4446 105.03 11.2118 105.623 10.7057 105.844L7.2113 107.369ZM146.344 105.376C146.899 105.6 147.17 106.237 146.942 106.795C146.713 107.353 146.075 107.608 145.527 107.369L142.032 105.844C141.526 105.623 141.293 105.03 141.505 104.515C141.716 104 142.296 103.746 142.808 103.953L146.344 105.376ZM1.09338 78.3132C0.493652 78.3215 0 77.8369 0 77.2305C0 76.6238 0.493652 76.1392 1.09338 76.1477L4.88916 76.2012C5.44348 76.209 5.88586 76.6697 5.88586 77.2305C5.88586 77.791 5.44348 78.2517 4.88916 78.2595L1.09338 78.3132ZM152.738 77.2305C152.738 77.8369 152.244 78.3215 151.645 78.3132L147.849 78.2595C147.295 78.2517 146.852 77.791 146.852 77.2305C146.852 76.6697 147.295 76.209 147.849 76.2012L151.645 76.1477C152.244 76.1392 152.738 76.6238 152.738 77.2305ZM6.39417 49.0847C5.83899 48.8611 5.56763 48.2239 5.79651 47.6658C6.02539 47.1074 6.6626 46.8528 7.2113 47.092L10.7057 48.6169C11.2118 48.8379 11.4446 49.4309 11.2334 49.9458C11.0222 50.4607 10.4423 50.7144 9.93018 50.5081L6.39417 49.0847ZM145.527 47.092C146.075 46.8528 146.713 47.1074 146.942 47.6658C147.17 48.2239 146.899 48.8611 146.344 49.0847L142.808 50.5081C142.296 50.7144 141.716 50.4607 141.505 49.9458C141.293 49.4309 141.526 48.8379 142.032 48.6169L145.527 47.092ZM128.845 22.6367C129.262 22.2034 129.948 22.1931 130.37 22.6204C130.793 23.0476 130.782 23.741 130.354 24.1621L127.626 26.8442C127.23 27.2334 126.598 27.2236 126.208 26.8291C125.818 26.4346 125.809 25.7954 126.193 25.3955L128.845 22.6367ZM22.384 24.1621C21.9557 23.741 21.9454 23.0476 22.3679 22.6204C22.7905 22.1931 23.4761 22.2034 23.8926 22.6367L26.5449 25.3955C26.9294 25.7954 26.92 26.4346 26.5299 26.8291C26.1398 27.2236 25.5078 27.2334 25.1122 26.8442L22.384 24.1621ZM46.5669 7.29272C46.3302 6.73779 46.582 6.09351 47.134 5.86206C47.686 5.63062 48.3162 5.90503 48.5372 6.46631L49.9448 10.0422C50.1487 10.5601 49.8979 11.1467 49.3888 11.3601C48.8796 11.5737 48.2931 11.3384 48.0747 10.8264L46.5669 7.29272ZM104.201 6.46631C104.422 5.90503 105.052 5.63062 105.604 5.86206C106.156 6.09351 106.408 6.73779 106.171 7.29272L104.663 10.8264C104.445 11.3384 103.859 11.5737 103.349 11.3601C102.84 11.1467 102.589 10.5601 102.793 10.0422L104.201 6.46631ZM76.369 0C76.9688 0 77.4481 0.499268 77.4397 1.10571L77.3868 4.94434C77.379 5.50488 76.9235 5.95239 76.369 5.95239C75.8147 5.95239 75.359 5.50488 75.3512 4.94434L75.2983 1.10571C75.2899 0.499512 75.7693 0 76.369 0Z" fill="#0063A8" fill-opacity="1.000000" fill-rule="evenodd"/>
</svg>
