<?xml version="1.0" standalone="no"?>
<!DOCTYPE svg PUBLIC "-//W3C//DTD SVG 20010904//EN"
 "http://www.w3.org/TR/2001/REC-SVG-20010904/DTD/svg10.dtd">
<svg version="1.0" xmlns="http://www.w3.org/2000/svg"
 width="179.000000pt" height="35.000000pt" viewBox="0 0 179.000000 35.000000"
 preserveAspectRatio="xMidYMid meet">

<g transform="translate(0.000000,35.000000) scale(0.100000,-0.100000)"
fill="#000000" stroke="none">
<path d="M880 335 c0 -8 5 -15 10 -15 6 0 10 7 10 15 0 8 -4 15 -10 15 -5 0
-10 -7 -10 -15z"/>
<path d="M770 285 c7 -9 15 -13 17 -11 7 7 -7 26 -19 26 -6 0 -6 -6 2 -15z"/>
<path d="M863 248 c-54 -105 -55 -108 -28 -108 22 0 25 -5 25 -34 0 -18 6 -39
14 -45 11 -9 21 4 55 69 l42 80 -25 0 c-22 0 -25 5 -28 42 -2 23 -8 43 -15 45
-7 3 -24 -20 -40 -49z m47 -8 c0 -33 3 -40 20 -40 11 0 20 -3 20 -6 0 -13 -65
-124 -72 -124 -5 0 -8 18 -8 40 0 33 -3 40 -20 40 -11 0 -20 2 -20 5 0 15 62
125 70 125 6 0 10 -18 10 -40z"/>
<path d="M995 289 c-11 -17 1 -21 15 -4 8 9 8 15 2 15 -6 0 -14 -5 -17 -11z"/>
<path d="M0 180 c0 -6 118 -10 335 -10 217 0 335 4 335 10 0 6 -118 10 -335
10 -217 0 -335 -4 -335 -10z"/>
<path d="M715 179 c-10 -15 1 -23 20 -15 9 3 13 10 10 16 -8 13 -22 13 -30 -1z"/>
<path d="M1035 181 c-3 -5 -1 -12 5 -16 12 -7 30 2 30 16 0 12 -27 12 -35 0z"/>
<path d="M1120 180 c0 -6 118 -10 335 -10 217 0 335 4 335 10 0 6 -118 10
-335 10 -217 0 -335 -4 -335 -10z"/>
<path d="M770 65 c-8 -9 -8 -15 -2 -15 12 0 26 19 19 26 -2 2 -10 -2 -17 -11z"/>
<path d="M990 72 c0 -12 19 -26 26 -19 2 2 -2 10 -11 17 -9 8 -15 8 -15 2z"/>
<path d="M880 15 c0 -8 5 -15 10 -15 6 0 10 7 10 15 0 8 -4 15 -10 15 -5 0
-10 -7 -10 -15z"/>
</g>
</svg>
