<svg width="55.775391" height="36.000000" viewBox="0 0 55.7754 36" fill="none" xmlns="http://www.w3.org/2000/svg" xmlns:xlink="http://www.w3.org/1999/xlink">
	<desc>
			Created with Pixso.
	</desc>
	<defs/>
	<g opacity="0.060000">
		<path id="Vector" d="M20.4353 15.3529C21.8728 16.2941 22.9663 17.5 23.7163 18.9706C24.4663 20.3823 24.8413 21.9706 24.8413 23.7354C24.8413 27.3823 23.5601 30.3529 20.9978 32.6471C18.4355 34.8823 15.2798 36 11.53 36C8.09302 36 5.31201 35.0294 3.18726 33.0883C1.0625 31.1471 0 28.6177 0 25.5C0 23.9117 0.3125 22.3823 0.9375 20.9117C1.56226 19.4412 2.71851 17.5588 4.40576 15.2646L15.467 0L28.5908 0L20.4353 15.3529ZM47.6201 15.3529C49.0574 16.2941 50.1511 17.5 50.9011 18.9706C51.6509 20.3823 52.0259 21.9706 52.0259 23.7354C52.0259 27.3823 50.7449 30.3529 48.1826 32.6471C45.6204 34.8823 42.4644 36 38.7148 36C35.2776 36 32.4966 35.0294 30.3718 33.0883C28.2471 31.1471 27.1848 28.6177 27.1848 25.5C27.1848 23.9117 27.4971 22.3823 28.1221 20.9117C28.7471 19.4412 29.9031 17.5588 31.5906 15.2646L42.6519 0L55.7754 0L47.6201 15.3529Z" fill="#333333" fill-opacity="1.000000" fill-rule="nonzero"/>
	</g>
</svg>
